<svg version="1.1" id="Layer_1" xmlns="http://www.w3.org/2000/svg" xmlns:xlink="http://www.w3.org/1999/xlink" x="0px" y="0px"
	 width="100%" viewBox="0 0 512 512" enable-background="new 0 0 512 512" xml:space="preserve">
<path fill="#000000" opacity="1.000000" stroke="none" 
	d="
M513.000000,256.000000 
	C513.000000,256.444458 513.000000,256.888885 512.618286,257.668701 
	C511.345490,258.349823 510.443634,258.670319 509.564880,259.045074 
	C485.116821,269.471191 460.651306,279.856812 436.230774,290.347107 
	C413.860870,299.956512 391.563049,309.733704 369.191193,319.338562 
	C344.761658,329.826843 320.262268,340.152313 295.833038,350.641266 
	C273.461761,360.246613 251.172699,370.043610 228.793915,379.631287 
	C204.504730,390.037445 180.126785,400.236328 155.837631,410.642578 
	C133.458908,420.230286 111.171188,430.030426 88.798592,439.632599 
	C63.337925,450.560120 37.842731,461.407745 12.321838,472.193787 
	C8.664895,473.739349 4.779620,474.744690 0.999999,476.000000 
	C1.000000,419.312439 1.000000,362.624878 1.436658,305.468658 
	C5.611833,304.655701 9.368433,304.445099 13.085525,303.942383 
	C24.831814,302.353638 36.555866,300.600250 48.303082,299.018677 
	C56.531452,297.910889 64.794296,297.059143 73.022606,295.950958 
	C84.770035,294.368774 96.493546,292.609283 108.239510,291.015747 
	C116.625000,289.878113 125.041679,288.968750 133.424164,287.810730 
	C141.940033,286.634247 150.415710,285.162323 158.937164,284.032257 
	C167.659195,282.875580 176.433243,282.108826 185.152161,280.931854 
	C196.408112,279.412384 207.618088,277.552307 218.874100,276.033203 
	C227.592987,274.856506 236.370087,274.111176 245.088913,272.934143 
	C256.344971,271.414551 267.554749,269.552582 278.810852,268.033417 
	C287.529633,266.856689 296.301361,266.075958 305.027161,264.946442 
	C317.109711,263.382507 329.176147,261.690887 341.239563,259.983948 
	C346.520294,259.236755 351.776489,258.316437 357.043823,257.474731 
	C353.864349,255.963882 350.748016,255.401993 347.610046,255.015381 
	C339.041046,253.959671 330.449707,253.077682 321.891663,251.942474 
	C310.141418,250.383835 298.421051,248.600296 286.673706,247.018661 
	C278.445343,245.910812 270.182526,245.058350 261.954193,243.950165 
	C250.206802,242.368027 238.484344,240.600632 226.736893,239.018875 
	C218.508606,237.910950 210.245605,237.060593 202.017365,235.952332 
	C190.269882,234.370056 178.546768,232.607239 166.800354,231.016663 
	C158.413712,229.881027 149.996323,228.972366 141.609863,227.835495 
	C130.186523,226.286957 118.788231,224.552795 107.362701,223.021255 
	C98.809486,221.874741 90.220932,220.992966 81.665070,219.864746 
	C72.490135,218.654892 63.339882,217.258926 54.169827,216.010529 
	C45.950954,214.891617 37.718269,213.874588 29.494499,212.791199 
	C19.994720,211.539703 10.498030,210.264771 0.999999,209.000000 
	C1.000000,152.312439 1.000000,95.624878 1.404231,38.468662 
	C3.497910,38.469284 5.269408,38.748920 6.863479,39.438629 
	C17.159016,43.893211 27.371731,48.541046 37.695183,52.928867 
	C55.225113,60.379688 72.859032,67.586555 90.369804,75.081558 
	C105.543770,81.576363 120.569962,88.415886 135.729843,94.944267 
	C153.522202,102.606285 171.407745,110.051674 189.216675,117.675606 
	C204.091171,124.043327 218.891479,130.584366 233.764572,136.955414 
	C251.572220,144.583481 269.439514,152.072189 287.248627,159.696838 
	C302.122437,166.064789 316.924591,172.600204 331.803864,178.955124 
	C349.470795,186.500656 367.212036,193.872330 384.872894,201.431839 
	C399.896027,207.862289 414.821625,214.520447 429.843353,220.954224 
	C447.503021,228.517792 465.212952,235.964355 482.914581,243.429611 
	C492.929047,247.652969 502.970612,251.812012 513.000000,256.000000 
z"/>
<path fill="#FFFFFF" opacity="1.000000" stroke="none" 
	d="
M513.000000,255.536118 
	C502.970612,251.812012 492.929047,247.652969 482.914581,243.429611 
	C465.212952,235.964355 447.503021,228.517792 429.843353,220.954224 
	C414.821625,214.520447 399.896027,207.862289 384.872894,201.431839 
	C367.212036,193.872330 349.470795,186.500656 331.803864,178.955124 
	C316.924591,172.600204 302.122437,166.064789 287.248627,159.696838 
	C269.439514,152.072189 251.572220,144.583481 233.764572,136.955414 
	C218.891479,130.584366 204.091171,124.043327 189.216675,117.675606 
	C171.407745,110.051674 153.522202,102.606285 135.729843,94.944267 
	C120.569962,88.415886 105.543770,81.576363 90.369804,75.081558 
	C72.859032,67.586555 55.225113,60.379688 37.695183,52.928867 
	C27.371731,48.541046 17.159016,43.893211 6.863479,39.438629 
	C5.269408,38.748920 3.497910,38.469284 1.404231,38.000004 
	C1.000000,25.673235 1.000000,13.346469 1.000000,1.014777 
	C171.569214,1.009851 342.138428,1.009851 513.000000,1.009851 
	C513.000000,85.690521 513.000000,170.381378 513.000000,255.536118 
z"/>
<path fill="#FFFFFF" opacity="1.000000" stroke="none" 
	d="
M0.999999,476.463867 
	C4.779620,474.744690 8.664895,473.739349 12.321838,472.193787 
	C37.842731,461.407745 63.337925,450.560120 88.798592,439.632599 
	C111.171188,430.030426 133.458908,420.230286 155.837631,410.642578 
	C180.126785,400.236328 204.504730,390.037445 228.793915,379.631287 
	C251.172699,370.043610 273.461761,360.246613 295.833038,350.641266 
	C320.262268,340.152313 344.761658,329.826843 369.191193,319.338562 
	C391.563049,309.733704 413.860870,299.956512 436.230774,290.347107 
	C460.651306,279.856812 485.116821,269.471191 509.564880,259.045074 
	C510.443634,258.670319 511.345490,258.349823 512.618286,258.002014 
	C513.000000,342.954742 513.000000,427.909515 513.000000,512.932129 
	C342.333344,512.932129 171.666672,512.932129 1.000000,512.932129 
	C1.000000,500.914978 1.000000,488.921356 0.999999,476.463867 
z"/>
<path fill="#FFFFFF" opacity="1.000000" stroke="none" 
	d="
M0.999999,209.468658 
	C10.498030,210.264771 19.994720,211.539703 29.494499,212.791199 
	C37.718269,213.874588 45.950954,214.891617 54.169827,216.010529 
	C63.339882,217.258926 72.490135,218.654892 81.665070,219.864746 
	C90.220932,220.992966 98.809486,221.874741 107.362701,223.021255 
	C118.788231,224.552795 130.186523,226.286957 141.609863,227.835495 
	C149.996323,228.972366 158.413712,229.881027 166.800354,231.016663 
	C178.546768,232.607239 190.269882,234.370056 202.017365,235.952332 
	C210.245605,237.060593 218.508606,237.910950 226.736893,239.018875 
	C238.484344,240.600632 250.206802,242.368027 261.954193,243.950165 
	C270.182526,245.058350 278.445343,245.910812 286.673706,247.018661 
	C298.421051,248.600296 310.141418,250.383835 321.891663,251.942474 
	C330.449707,253.077682 339.041046,253.959671 347.610046,255.015381 
	C350.748016,255.401993 353.864349,255.963882 357.043823,257.474731 
	C351.776489,258.316437 346.520294,259.236755 341.239563,259.983948 
	C329.176147,261.690887 317.109711,263.382507 305.027161,264.946442 
	C296.301361,266.075958 287.529633,266.856689 278.810852,268.033417 
	C267.554749,269.552582 256.344971,271.414551 245.088913,272.934143 
	C236.370087,274.111176 227.592987,274.856506 218.874100,276.033203 
	C207.618088,277.552307 196.408112,279.412384 185.152161,280.931854 
	C176.433243,282.108826 167.659195,282.875580 158.937164,284.032257 
	C150.415710,285.162323 141.940033,286.634247 133.424164,287.810730 
	C125.041679,288.968750 116.625000,289.878113 108.239510,291.015747 
	C96.493546,292.609283 84.770035,294.368774 73.022606,295.950958 
	C64.794296,297.059143 56.531452,297.910889 48.303082,299.018677 
	C36.555866,300.600250 24.831814,302.353638 13.085525,303.942383 
	C9.368433,304.445099 5.611833,304.655701 1.436658,305.000000 
	C1.000000,273.312439 1.000000,241.624878 0.999999,209.468658 
z"/>
</svg>